<svg width="200" height="200" viewBox="0 0 200 200" xmlns="http://www.w3.org/2000/svg">
  <defs>
    <radialGradient id="grad1" cx="50%" cy="50%" r="70%" fx="50%" fy="50%">
      <stop offset="0%" style="stop-color:#00f0ff; stop-opacity:1" />
      <stop offset="100%" style="stop-color:#8e2de2; stop-opacity:1" />
    </radialGradient>
    <filter id="shadow" x="-20%" y="-20%" width="140%" height="140%">
      <feDropShadow dx="0" dy="4" stdDeviation="4" flood-color="#000" flood-opacity="0.4"/>
    </filter>
    <filter id="glow" x="-50%" y="-50%" width="200%" height="200%">
      <feGaussianBlur stdDeviation="3" result="coloredBlur"/>
      <feMerge> 
        <feMergeNode in="coloredBlur"/>
        <feMergeNode in="SourceGraphic"/>
      </feMerge>
    </filter>
  </defs>

  <!-- Background circle for better visibility -->
  <circle cx="100" cy="100" r="85" fill="rgba(255,255,255,0.1)" stroke="rgba(255,255,255,0.2)" stroke-width="2"/>

  <!-- Controller Body -->
  <path d="M50,90 Q40,60 70,50 H130 Q160,60 150,90 L140,130 Q120,150 100,130 Q80,150 60,130 Z"
        fill="url(#grad1)" filter="url(#shadow)"/>

  <!-- Left D-pad -->
  <rect x="65" y="85" width="8" height="20" rx="2" ry="2" fill="#fff"/>
  <rect x="60" y="92" width="20" height="8" rx="2" ry="2" fill="#fff"/>

  <!-- Right Buttons -->
  <circle cx="130" cy="95" r="6" fill="#fff"/>
  <circle cx="140" cy="105" r="6" fill="#fff"/>
  <circle cx="120" cy="105" r="6" fill="#fff"/>
  <circle cx="130" cy="115" r="6" fill="#fff"/>

  <!-- Flick Spark with glow effect -->
  <path d="M100 50 L105 60 L100 55 L95 65 L100 60 L90 70" stroke="#ffffff" stroke-width="3" fill="none" filter="url(#glow)"/>

  <!-- Additional glow elements for better visibility -->
  <circle cx="100" cy="100" r="70" fill="none" stroke="rgba(0,240,255,0.3)" stroke-width="1" stroke-dasharray="5,5"/>
  <circle cx="100" cy="100" r="60" fill="none" stroke="rgba(142,45,226,0.3)" stroke-width="1" stroke-dasharray="3,3"/>

</svg> 